<?xml version="1.0" encoding="UTF-8" standalone="no"?>
<!-- Created with Inkscape (http://www.inkscape.org/) -->

<svg
   xmlns:dc="http://purl.org/dc/elements/1.1/"
   xmlns:cc="http://creativecommons.org/ns#"
   xmlns:rdf="http://www.w3.org/1999/02/22-rdf-syntax-ns#"
   xmlns:svg="http://www.w3.org/2000/svg"
   xmlns="http://www.w3.org/2000/svg"
   xmlns:sodipodi="http://sodipodi.sourceforge.net/DTD/sodipodi-0.dtd"
   xmlns:inkscape="http://www.inkscape.org/namespaces/inkscape"
   width="210mm"
   height="297mm"
   id="svg2"
   version="1.1"
   inkscape:version="0.48.4 r9939"
   sodipodi:docname="face_think.svg">
  <defs
     id="defs4" />
  <sodipodi:namedview
     id="base"
     pagecolor="#ffffff"
     bordercolor="#666666"
     borderopacity="1.0"
     inkscape:pageopacity="0.0"
     inkscape:pageshadow="2"
     inkscape:zoom="1.979899"
     inkscape:cx="243.06983"
     inkscape:cy="847.90096"
     inkscape:document-units="px"
     inkscape:current-layer="layer1"
     showgrid="false"
     inkscape:window-width="1920"
     inkscape:window-height="1018"
     inkscape:window-x="-8"
     inkscape:window-y="-8"
     inkscape:window-maximized="1" />
  <metadata
     id="metadata7">
    <rdf:RDF>
      <cc:Work
         rdf:about="">
        <dc:format>image/svg+xml</dc:format>
        <dc:type
           rdf:resource="http://purl.org/dc/dcmitype/StillImage" />
        <dc:title />
      </cc:Work>
    </rdf:RDF>
  </metadata>
  <g
     inkscape:label="layer1"
     inkscape:groupmode="layer"
     id="layer1">
    <path
       id="Face"
       style="fill:none;stroke:#000000;stroke-width:2.2268765;stroke-linecap:butt;stroke-linejoin:miter;stroke-miterlimit:4;stroke-opacity:1;stroke-dasharray:none"
       d="M 235.44399,429.14331 C 159.43649,431.27296 86.335383,381.53329 53.307996,310.15978 20.973425,260.89438 20.093867,188.46376 58.435826,142.46928 89.195492,104.16654 116.74716,59.512547 161.49161,37.645688 c 21.62348,-12.645993 45.68915,-21.870081 70.83642,-20.655209 34.08778,0.513457 69.37515,7.38826 97.13466,29.570606 24.11941,17.769661 52.42276,33.490985 64.84684,63.345485 24.02708,44.75798 44.08079,95.14178 42.15321,147.42826 -4.38237,32.72689 -21.94933,61.18216 -36.49574,89.78303 -26.55319,45.69799 -73.50534,79.47241 -125.27081,81.15792 -13.05382,1.1169 -26.16607,1.15946 -39.2522,0.86753 z"
       inkscape:connector-curvature="0" />
    <path
       id="L_lid"
       style="fill:none;stroke:#000000;stroke-width:1;stroke-linecap:butt;stroke-linejoin:miter;stroke-miterlimit:4;stroke-opacity:1;stroke-dasharray:none"
       d="m 344.29864,183.88934 c -8.47504,0.24406 -16.51923,-5.33906 -19.96984,-12.96234 -3.60938,-5.27827 -3.07614,-12.95783 1.17137,-17.72925 2.59165,-3.20924 4.98782,-6.66846 8.40492,-9.08164 3.46112,-2.67593 7.91661,-4.04063 12.28235,-3.44753 3.19685,0.21581 6.33418,1.31485 8.83578,3.33888 2.92145,1.78667 5.8367,3.99974 7.06933,7.32593 2.3832,4.69855 4.45559,9.89723 3.87812,15.26883 -1.33871,4.39691 -3.417,8.67787 -6.49797,12.11733 -3.45258,3.61208 -8.50147,5.47598 -13.46854,5.18939 -0.56849,0.006 -1.13804,-0.002 -1.70552,-0.0196 z"
       inkscape:connector-curvature="0" />
    <path
       id="R_lid"
       style="fill:#ffffff;stroke:#000000;stroke-width:1;stroke-linecap:butt;stroke-linejoin:miter;stroke-miterlimit:4;stroke-opacity:1;stroke-dasharray:none"
       d="m 127.10491,181.65814 c -8.49315,0.25074 -16.49896,-5.34127 -19.96984,-12.96234 -1.99248,-2.92559 -2.78895,-6.58289 -2.19367,-10.06767 0.1653,-3.3251 2.00251,-6.27467 4.22624,-8.63116 3.5395,-5.09833 8.30922,-10.03243 14.58279,-11.41235 2.99319,-0.52834 6.10288,-0.19593 9.03472,0.52013 2.25595,0.53898 4.03284,2.05051 5.912,3.29248 2.53573,1.46375 4.85733,3.48809 5.95389,6.27064 2.52397,4.80157 4.71565,10.17658 4.1259,15.70315 -0.87584,3.33962 -2.57231,6.40583 -4.29622,9.37029 -3.00827,4.57723 -8.17367,7.84868 -13.739,7.85668 -1.20988,0.0896 -2.42461,0.0993 -3.63681,0.0602 z"
       inkscape:connector-curvature="0" />

    <path
       id="UpperLip"
       style="fill:#aa0000;stroke:#000000;stroke-width:1.06652188px;stroke-linecap:butt;stroke-linejoin:miter;stroke-opacity:1"
       d="m 83.38133,280.94026 41.48467,-13.55563 61.00685,-7.13454 c 0,0 41.48467,-2.14036 46.36522,-2.14036 4.88054,0 75.6485,12.84217 81.34247,14.26908 5.69398,1.42691 36.60411,13.55563 36.60411,13.55563 l 43.92495,20.69018 -99.23782,8.56145 c 0,0 -64.26057,-4.99418 -69.14112,-4.99418 -4.88054,0 -64.26055,-2.14036 -68.32768,-2.14036 -4.06711,0 -40.67122,-2.85382 -40.67122,-2.85382 l -26.0296,-8.56146 z"
       inkscape:connector-curvature="0">
      <animateMotion begin="0s" dur="1s" path="M -1, -1, -1, -3Z" repeatCount="indefinite">
    </path>

    <path
       id="LowerLip"
       style="fill:#aa0000;stroke:#000000;stroke-width:1.06555319px;stroke-linecap:butt;stroke-linejoin:miter;stroke-opacity:1"
       d="m 85.52372,311.67426 23.54256,25.68861 69.00409,27.82935 c 0,0 24.35438,0.71357 30.84887,0.71357 6.49451,0 52.76783,7.13573 59.26234,4.28144 6.4945,-2.8543 58.45052,-9.27645 58.45052,-9.27645 l 38.96701,-15.6986 18.67169,-12.84431 10.55356,-18.5529 0,-3.56785 -69.81589,7.13572 -56.01508,2.14072 -65.75684,-5.70859 -58.45052,-2.14071 -46.27331,-6.42215 z"
       inkscape:connector-curvature="0">
      <animateMotion begin="0s" dur="1s" path="M 1, 1, 1, 3Z" repeatCount="indefinite">
    </path>

    <path
       id="L_EyeBall"
       style="fill:#000000;fill-opacity:1;stroke:#000000;stroke-width:0.26001942;stroke-linecap:butt;stroke-linejoin:miter;stroke-miterlimit:4;stroke-opacity:1;stroke-dasharray:none"
       d="m 344.8717,163.76316 c -3.83682,-0.0276 -7.98921,-0.0603 -11.0335,-0.27561 -2.60847,-0.11039 -4.45884,-0.30581 -5.85819,-0.5125 -1.30276,-0.15876 -2.55453,-0.32125 -3.54484,-0.49497 0.099,-0.22345 0.28001,-0.44656 0.40996,-0.66989 3.47528,-0.34222 6.26127,-0.74708 10.79046,-1.0052 2.13542,-0.083 4.27085,-0.166 6.40629,-0.249 2.82982,0.0179 5.65966,0.0358 8.48951,0.0537 2.75728,0.14334 5.51457,0.28667 8.27185,0.43001 2.41159,0.3378 5.3434,0.67822 5.58591,1.08347 0.24235,0.10469 0.48454,0.20938 0.7268,0.31407 -2.02558,0.412 -4.15717,0.86224 -8.83722,1.11935 -3.36168,0.18015 -7.48734,0.2171 -11.40703,0.20652 z"
       inkscape:connector-curvature="0" />
    <path
       id="R_EyeBall"
       style="fill:#000000;fill-opacity:1;stroke:#000000;stroke-width:0.24245967;stroke-linecap:butt;stroke-linejoin:miter;stroke-miterlimit:4;stroke-opacity:1;stroke-dasharray:none"
       d="m 126.8027,162.34363 c -3.93376,-0.0234 -8.19104,-0.0511 -11.31223,-0.23375 -2.67437,-0.0936 -4.57147,-0.25934 -6.00617,-0.43463 -1.33567,-0.13464 -2.61909,-0.27244 -3.6344,-0.41977 0.10161,-0.18949 0.28707,-0.37872 0.42031,-0.56811 3.56308,-0.29022 6.41945,-0.63358 11.06307,-0.85248 2.18936,-0.0704 4.37873,-0.14079 6.56812,-0.21117 2.9013,0.0152 5.80264,0.0304 8.70398,0.0456 2.82695,0.12156 5.65388,0.24312 8.48083,0.36468 2.4725,0.28648 5.47837,0.57518 5.72702,0.91886 0.24848,0.0888 0.49676,0.17757 0.74516,0.26635 -2.07675,0.34941 -4.2622,0.73124 -9.06047,0.94929 -3.44661,0.15278 -7.6765,0.18412 -11.69522,0.17515 z"
       inkscape:connector-curvature="0" />
    <path
       id="R_EyeBrow"
       style="fill:#241c1c;stroke:#000000;stroke-width:0.30935979px;stroke-linecap:butt;stroke-linejoin:miter;stroke-opacity:1"
       d="m 95.51254,115.31343 9.62848,-4.91403 14.15953,-2.58633 c 0,0 9.62849,-0.7759 10.76125,-0.7759 1.13276,0 17.55782,4.65539 18.87938,5.17266 1.32155,0.51726 8.49572,4.91403 8.49572,4.91403 l 10.19486,7.50036 -23.03284,3.10359 c 0,0 -14.91471,-1.81043 -16.04747,-1.81043 -1.13276,0 -14.91471,-0.7759 -15.85868,-0.7759 -0.94396,0 -9.43968,-1.03453 -9.43968,-1.03453 l -6.0414,-3.1036 z"
       inkscape:connector-curvature="0" />
    <path
       id="L_EyeBrow"
       style="fill:#241c1c;stroke:#000000;stroke-width:0.30935979px;stroke-linecap:butt;stroke-linejoin:miter;stroke-opacity:1"
       d="m 314.24569,115.94577 9.62848,-4.91403 14.15953,-2.58633 c 0,0 13.9142,1.36696 15.04696,1.36696 1.13276,0 13.27211,2.51253 14.59367,3.0298 1.32155,0.51726 8.49572,4.91403 8.49572,4.91403 l 10.19486,7.50036 -23.03284,3.10359 c 0,0 -14.91471,-1.81043 -16.04747,-1.81043 -1.13276,0 -14.91471,-0.7759 -15.85868,-0.7759 -0.94396,0 -9.43968,-1.03453 -9.43968,-1.03453 l -6.0414,-3.1036 z"
       inkscape:connector-curvature="0" />
  </g>
</svg>
